<svg xmlns="http://www.w3.org/2000/svg" version="1.1" xmlns:xlink="http://www.w3.org/1999/xlink" xmlns:svgjs="http://svgjs.dev/svgjs" width="1000" height="1000" viewBox="0 0 1000 1000"><rect width="1000" height="1000" fill="#ffffff"></rect><g transform="matrix(0.7,0,0,0.7,149.57575758572648,404.76456220245655)"><svg viewBox="0 0 396 108" data-background-color="#ffffff" preserveAspectRatio="xMidYMid meet" height="272" width="1000" xmlns="http://www.w3.org/2000/svg" xmlns:xlink="http://www.w3.org/1999/xlink"><g id="tight-bounds" transform="matrix(1,0,0,1,0.2400000056395868,0.020101271715816438)"><svg viewBox="0 0 395.5199999999999 107.9597974565684" height="107.9597974565684" width="395.5199999999999"><g><svg viewBox="0 0 395.5199999999999 107.9597974565684" height="107.9597974565684" width="395.5199999999999"><g><svg viewBox="0 0 395.5199999999999 107.9597974565684" height="107.9597974565684" width="395.5199999999999"><g id="textblocktransform"><svg viewBox="0 0 395.5199999999999 107.9597974565684" height="107.9597974565684" width="395.5199999999999" id="textblock"><g><svg viewBox="0 0 395.5199999999999 45.791278195488715" height="45.791278195488715" width="395.5199999999999"><g transform="matrix(1,0,0,1,0,0)"><svg width="395.5199999999999" viewBox="3.490000009536743 -37.9900016784668 334.4200134277344 38.720001220703125" height="45.791278195488715" data-palette-color="#2b2b2b"><path d="M3.49-32.79L3.49-37.01 18.46-37.01Q20.95-37.01 23.03-36.36 25.12-35.72 26.65-34.46 28.17-33.2 29.02-31.32 29.86-29.44 29.86-27L29.86-27Q29.86-24.98 29.03-23.18 28.2-21.39 26.68-20.04 25.17-18.7 23.06-17.92 20.95-17.14 18.36-17.14L18.36-17.14 11.79-17.14 11.79-4.2 15.5-4.2 15.5 0 3.49 0 3.49-4.2 7.01-4.2 7.01-32.79 3.49-32.79ZM17.85-32.79L11.79-32.79 11.79-21.14 18.46-21.14Q19.85-21.14 21.01-21.52 22.17-21.9 23.01-22.63 23.85-23.36 24.33-24.46 24.8-25.56 24.8-27L24.8-27Q24.8-29.74 23.14-31.26 21.48-32.79 17.85-32.79L17.85-32.79ZM46.51 0L46.51-2.34Q45.07-1 43.32-0.15 41.57 0.71 39.35 0.71L39.35 0.71Q37.5 0.71 35.95 0.12 34.4-0.46 33.27-1.48 32.15-2.49 31.53-3.83 30.91-5.18 30.91-6.69L30.91-6.69Q30.91-8.3 31.38-9.55 31.86-10.79 32.65-11.71 33.44-12.62 34.51-13.24 35.57-13.87 36.73-14.25 37.89-14.62 39.1-14.78 40.31-14.94 41.4-14.94L41.4-14.94Q43.16-14.94 44.36-14.83 45.55-14.72 46.53-14.53L46.53-14.53 46.56-16.6Q46.56-17.94 46.16-18.93 45.77-19.92 45.07-20.57 44.36-21.22 43.37-21.53 42.38-21.85 41.16-21.85L41.16-21.85Q40.01-21.85 38.96-21.69 37.91-21.53 37-21.28 36.08-21.02 35.31-20.69 34.54-20.36 34.01-20L34.01-20 32.52-23.14Q33.42-23.73 34.49-24.23 35.57-24.73 36.75-25.09 37.94-25.44 39.17-25.65 40.4-25.85 41.6-25.85L41.6-25.85Q43.8-25.85 45.55-25.33 47.31-24.8 48.53-23.71 49.75-22.61 50.41-20.91 51.07-19.21 51.07-16.85L51.07-16.85 51.05-4.2 53.85-4.2 53.85 0 46.51 0ZM40.35-3.1L40.35-3.1Q41.26-3.1 42.16-3.32 43.06-3.54 43.87-3.92 44.68-4.3 45.36-4.8 46.04-5.3 46.51-5.83L46.51-5.83 46.53-11.55 41.26-11.55Q39.94-11.55 38.85-11.25 37.77-10.96 36.97-10.4 36.18-9.84 35.74-9.01 35.3-8.18 35.3-7.1L35.3-7.1Q35.3-6.1 35.67-5.36 36.03-4.61 36.7-4.11 37.38-3.61 38.3-3.36 39.23-3.1 40.35-3.1ZM73.9-33.79L73.9-37.99 81.88-37.99 81.88-4.2 85.59-4.2 85.59 0 77.34 0 77.34-2.08Q76.12-0.83 74.51-0.13 72.9 0.56 70.84 0.56L70.84 0.56Q68.28 0.56 66.07-0.33 63.86-1.22 62.24-2.94 60.62-4.66 59.7-7.17 58.78-9.67 58.78-12.89L58.78-12.89Q58.78-15.82 59.66-18.23 60.54-20.63 62.15-22.33 63.76-24.02 66.04-24.96 68.31-25.9 71.09-25.9L71.09-25.9Q72.92-25.9 74.43-25.5 75.95-25.1 77.34-24.1L77.34-24.1 77.34-33.79 73.9-33.79ZM71.43-3.39L71.43-3.39Q73.46-3.39 74.82-3.99 76.19-4.59 77.34-5.79L77.34-5.79 77.34-19.95Q76.12-20.97 74.53-21.44 72.94-21.9 71.28-21.9L71.28-21.9Q69.67-21.9 68.26-21.3 66.84-20.7 65.78-19.56 64.72-18.41 64.11-16.75 63.5-15.09 63.5-12.94L63.5-12.94Q63.5-10.6 64.08-8.81 64.67-7.03 65.72-5.82 66.77-4.61 68.23-4 69.7-3.39 71.43-3.39ZM104.8 0L104.8-2.34Q103.36-1 101.62-0.15 99.87 0.71 97.65 0.71L97.65 0.71Q95.79 0.71 94.24 0.12 92.69-0.46 91.57-1.48 90.45-2.49 89.82-3.83 89.2-5.18 89.2-6.69L89.2-6.69Q89.2-8.3 89.68-9.55 90.15-10.79 90.95-11.71 91.74-12.62 92.8-13.24 93.86-13.87 95.02-14.25 96.18-14.62 97.39-14.78 98.6-14.94 99.7-14.94L99.7-14.94Q101.46-14.94 102.65-14.83 103.85-14.72 104.83-14.53L104.83-14.53 104.85-16.6Q104.85-17.94 104.46-18.93 104.07-19.92 103.36-20.57 102.65-21.22 101.66-21.53 100.68-21.85 99.46-21.85L99.46-21.85Q98.31-21.85 97.26-21.69 96.21-21.53 95.29-21.28 94.38-21.02 93.61-20.69 92.84-20.36 92.3-20L92.3-20 90.81-23.14Q91.72-23.73 92.79-24.23 93.86-24.73 95.05-25.09 96.23-25.44 97.47-25.65 98.7-25.85 99.89-25.85L99.89-25.85Q102.09-25.85 103.85-25.33 105.61-24.8 106.83-23.71 108.05-22.61 108.71-20.91 109.37-19.21 109.37-16.85L109.37-16.85 109.34-4.2 112.15-4.2 112.15 0 104.8 0ZM98.65-3.1L98.65-3.1Q99.55-3.1 100.46-3.32 101.36-3.54 102.17-3.92 102.97-4.3 103.65-4.8 104.34-5.3 104.8-5.83L104.8-5.83 104.83-11.55 99.55-11.55Q98.23-11.55 97.15-11.25 96.06-10.96 95.27-10.4 94.47-9.84 94.04-9.01 93.6-8.18 93.6-7.1L93.6-7.1Q93.6-6.1 93.96-5.36 94.33-4.61 95-4.11 95.67-3.61 96.6-3.36 97.53-3.1 98.65-3.1ZM135.46-25.44L135.46-19.95 130.82-19.95 130.82-21.51Q130.02-21.51 129.18-21.2 128.33-20.9 127.6-20.28 126.87-19.65 126.32-18.69 125.77-17.72 125.53-16.41L125.53-16.41 125.53-4.2 129.82-4.2 129.82 0 117.28 0 117.28-4.2 120.77-4.2 120.79-21.09 117.28-21.09 117.28-25.29 125.36-25.29 125.36-21.8Q125.8-22.58 126.34-23.25 126.89-23.93 127.57-24.43 128.24-24.93 129.05-25.21 129.87-25.49 130.82-25.49L130.82-25.49Q132.09-25.49 133.22-25.49 134.34-25.49 135.46-25.44L135.46-25.44ZM140.51-21.09L140.51-25.29 148.77-25.29 148.77-4.2 152.58-4.2 152.58 0 140.56 0 140.56-4.2 144.18-4.2 144.18-21.09 140.51-21.09ZM143.32-34.25L143.32-34.25Q143.32-34.89 143.58-35.46 143.84-36.04 144.26-36.46 144.69-36.89 145.28-37.15 145.86-37.4 146.52-37.4L146.52-37.4Q147.16-37.4 147.73-37.15 148.3-36.89 148.73-36.46 149.16-36.04 149.41-35.46 149.67-34.89 149.67-34.25L149.67-34.25Q149.67-33.59 149.41-33.01 149.16-32.42 148.73-31.97 148.3-31.52 147.73-31.26 147.16-31.01 146.52-31.01L146.52-31.01Q145.86-31.01 145.28-31.26 144.69-31.52 144.26-31.97 143.84-32.42 143.58-33.01 143.32-33.59 143.32-34.25ZM171.62 0L171.62-2.34Q170.18-1 168.43-0.15 166.68 0.71 164.46 0.71L164.46 0.71Q162.61 0.71 161.06 0.12 159.51-0.46 158.38-1.48 157.26-2.49 156.64-3.83 156.02-5.18 156.02-6.69L156.02-6.69Q156.02-8.3 156.49-9.55 156.97-10.79 157.76-11.71 158.55-12.62 159.62-13.24 160.68-13.87 161.84-14.25 163-14.62 164.21-14.78 165.41-14.94 166.51-14.94L166.51-14.94Q168.27-14.94 169.47-14.83 170.66-14.72 171.64-14.53L171.64-14.53 171.66-16.6Q171.66-17.94 171.27-18.93 170.88-19.92 170.18-20.57 169.47-21.22 168.48-21.53 167.49-21.85 166.27-21.85L166.27-21.85Q165.12-21.85 164.07-21.69 163.02-21.53 162.11-21.28 161.19-21.02 160.42-20.69 159.65-20.36 159.12-20L159.12-20 157.63-23.14Q158.53-23.73 159.6-24.23 160.68-24.73 161.86-25.09 163.05-25.44 164.28-25.65 165.51-25.85 166.71-25.85L166.71-25.85Q168.91-25.85 170.66-25.33 172.42-24.8 173.64-23.71 174.86-22.61 175.52-20.91 176.18-19.21 176.18-16.85L176.18-16.85 176.16-4.2 178.96-4.2 178.96 0 171.62 0ZM165.46-3.1L165.46-3.1Q166.37-3.1 167.27-3.32 168.17-3.54 168.98-3.92 169.78-4.3 170.47-4.8 171.15-5.3 171.62-5.83L171.62-5.83 171.64-11.55 166.37-11.55Q165.05-11.55 163.96-11.25 162.88-10.96 162.08-10.4 161.29-9.84 160.85-9.01 160.41-8.18 160.41-7.1L160.41-7.1Q160.41-6.1 160.78-5.36 161.14-4.61 161.81-4.11 162.49-3.61 163.41-3.36 164.34-3.1 165.46-3.1ZM181.65 0Q181.65 0 181.65 0ZM227.59-27.25L222.34-27.25Q220.71-30.03 218.01-31.62 215.31-33.2 211.99-33.2L211.99-33.2Q209.16-33.2 206.82-32.01 204.47-30.81 202.8-28.8 201.13-26.78 200.2-24.13 199.27-21.48 199.27-18.55L199.27-18.55Q199.27-15.09 200.3-12.41 201.32-9.74 202.97-7.97 204.62-6.2 206.89-5.02 209.16-3.83 211.99-3.83L211.99-3.83Q215.85-3.83 218.71-5.7 221.56-7.57 223.59-11.84L223.59-11.84 227.89-9.81Q226.96-7.18 224.74-4.72 222.51-2.27 219.25-0.77 216 0.73 212.04 0.73L212.04 0.73Q208.26 0.73 205.08-0.7 201.91-2.12 199.43-4.76 196.95-7.4 195.65-11.01 194.34-14.62 194.34-18.55L194.34-18.55Q194.34-22.51 195.65-26.03 196.95-29.54 199.31-32.14 201.66-34.74 204.92-36.24 208.18-37.74 211.99-37.74L211.99-37.74Q215.39-37.74 217.85-36.78 220.32-35.82 222.04-34.48 223.76-33.15 225-31.59L225-31.59 227.59-31.59 227.59-27.25ZM232.91-32.79L232.91-37.01 248.32-37.01Q250.78-37.01 252.87-36.36 254.96-35.72 256.48-34.46 258.01-33.2 258.86-31.32 259.72-29.44 259.72-27L259.72-27Q259.72-25.61 259.22-24.26 258.72-22.9 257.83-21.74 256.94-20.58 255.71-19.68 254.49-18.77 253.05-18.29L253.05-18.29Q253.66-18.02 254.29-17.52 254.91-17.02 255.46-16.3 256.01-15.58 256.46-14.66 256.91-13.75 257.18-12.7L257.18-12.7 259.23-4.64 262.43-4.64 262.48 0 255.28 0 252.52-11.25Q251.76-14.28 250.21-15.71 248.66-17.14 245.97-17.14L245.97-17.14 241.21-17.14 241.21-4.2 244.92-4.2 244.92 0 232.91 0 232.91-4.2 236.43-4.2 236.43-32.79 232.91-32.79ZM247.73-32.79L241.21-32.79 241.21-21.14 248.32-21.14Q249.71-21.14 250.87-21.51 252.03-21.88 252.87-22.61 253.71-23.34 254.19-24.43 254.67-25.51 254.67-26.95L254.67-26.95Q254.67-29.71 253-31.25 251.34-32.79 247.73-32.79L247.73-32.79ZM267.77-32.79L267.77-37.01 279.76-37.01 279.76-32.79 275.98-32.79 275.98-15.55Q275.98-12.45 276.67-10.27 277.37-8.08 278.6-6.7 279.83-5.32 281.53-4.69 283.23-4.05 285.25-4.05L285.25-4.05Q287.35-4.05 289.11-4.61 290.87-5.18 292.13-6.51 293.38-7.84 294.08-10.05 294.77-12.26 294.77-15.55L294.77-15.55 294.77-32.79 290.77-32.79 290.77-37.01 302.76-37.01 302.76-32.79 299.46-32.79 299.46-16.09Q299.46-12.08 298.35-8.98 297.24-5.88 295.31-3.78 293.38-1.68 290.77-0.6 288.16 0.49 285.16 0.49L285.16 0.49Q282.23 0.49 279.67-0.59 277.12-1.66 275.23-3.74 273.34-5.81 272.25-8.8 271.17-11.79 271.17-15.65L271.17-15.65 271.17-32.79 267.77-32.79ZM306.34-32.79L306.34-37.01 320.11-37.01Q322.65-37.01 324.95-36.35 327.24-35.69 329.22-34.5 331.2-33.3 332.81-31.63 334.42-29.96 335.56-27.91 336.69-25.85 337.3-23.5 337.91-21.14 337.91-18.6L337.91-18.6Q337.91-16.02 337.3-13.65 336.69-11.28 335.56-9.2 334.42-7.13 332.81-5.43 331.2-3.74 329.22-2.53 327.24-1.32 324.95-0.66 322.65 0 320.11 0L320.11 0 306.34 0 306.34-4.2 309.86-4.2 309.86-32.79 306.34-32.79ZM320.41-32.79L314.65-32.79 314.65-4.2 320.41-4.2Q322.97-4.2 325.23-5.32 327.49-6.45 329.17-8.39 330.86-10.33 331.83-12.95 332.81-15.58 332.81-18.6L332.81-18.6Q332.81-21.58 331.83-24.17 330.86-26.76 329.17-28.67 327.49-30.59 325.23-31.69 322.97-32.79 320.41-32.79L320.41-32.79Z" opacity="1" transform="matrix(1,0,0,1,0,0)" fill="#000000" class="wordmark-text-0" data-fill-palette-color="primary" id="text-0"></path></svg></g></svg></g><g transform="matrix(1,0,0,1,0,67.4117217780451)"><svg viewBox="0 0 395.5199999999999 40.54807567852329" height="40.54807567852329" width="395.5199999999999"><path d="M395.52 0l-6.758 20.274 6.758 20.274h-395.52l6.758-20.274-6.758-20.274z" data-fill-palette-color="tertiary" opacity="1" fill="#000000"></path><g transform="matrix(1,0,0,1,75.54431999999998,10.810221791278193)"><svg width="244.43135999999996" viewBox="3.490000009536743 -37.7400016784668 590.1699829101562 45.70000076293945" height="18.927632095966903" data-palette-color="#ffffff"><path d="M3.49-32.79L3.49-37.01 18.46-37.01Q20.95-37.01 23.03-36.36 25.12-35.72 26.65-34.46 28.17-33.2 29.02-31.32 29.86-29.44 29.86-27L29.86-27Q29.86-24.98 29.03-23.18 28.2-21.39 26.68-20.04 25.17-18.7 23.06-17.92 20.95-17.14 18.36-17.14L18.36-17.14 11.79-17.14 11.79-4.2 15.5-4.2 15.5 0 3.49 0 3.49-4.2 7.01-4.2 7.01-32.79 3.49-32.79ZM17.85-32.79L11.79-32.79 11.79-21.14 18.46-21.14Q19.85-21.14 21.01-21.52 22.17-21.9 23.01-22.63 23.85-23.36 24.33-24.46 24.8-25.56 24.8-27L24.8-27Q24.8-29.74 23.14-31.26 21.48-32.79 17.85-32.79L17.85-32.79ZM60.54-32.81L60.54-37.01 72.56-37.01 72.56-32.81 69.04-32.81 69.04-4.2 72.56-4.2 72.56 0 60.54 0 60.54-4.2 64.26-4.2 64.26-17.5 42.84-17.5 42.84-4.2 46.56-4.2 46.56 0 34.54 0 34.54-4.2 38.06-4.2 38.06-32.81 34.54-32.81 34.54-37.01 46.56-37.01 46.56-32.81 42.84-32.81 42.84-21.61 64.26-21.61 64.26-32.81 60.54-32.81ZM79.54-32.79L79.54-37.01 94.5-37.01Q96.99-37.01 99.08-36.36 101.17-35.72 102.69-34.46 104.22-33.2 105.06-31.32 105.9-29.44 105.9-27L105.9-27Q105.9-24.98 105.07-23.18 104.24-21.39 102.73-20.04 101.22-18.7 99.1-17.92 96.99-17.14 94.4-17.14L94.4-17.14 87.84-17.14 87.84-4.2 91.55-4.2 91.55 0 79.54 0 79.54-4.2 83.05-4.2 83.05-32.79 79.54-32.79ZM93.89-32.79L87.84-32.79 87.84-21.14 94.5-21.14Q95.89-21.14 97.05-21.52 98.21-21.9 99.06-22.63 99.9-23.36 100.37-24.46 100.85-25.56 100.85-27L100.85-27Q100.85-29.74 99.19-31.26 97.53-32.79 93.89-32.79L93.89-32.79ZM107.1 0Q107.1 0 107.1 0ZM147.52-32.81L147.52-37.01 159.54-37.01 159.54-32.81 156.02-32.81 156.02-4.2 159.54-4.2 159.54 0 147.52 0 147.52-4.2 151.24-4.2 151.24-17.5 129.82-17.5 129.82-4.2 133.53-4.2 133.53 0 121.52 0 121.52-4.2 125.04-4.2 125.04-32.81 121.52-32.81 121.52-37.01 133.53-37.01 133.53-32.81 129.82-32.81 129.82-21.61 151.24-21.61 151.24-32.81 147.52-32.81ZM174.08 0L174.08-4.2 177.48-4.2 177.48-33.01 169.03-33.01 169.03-27.25 164.03-27.25 164.03-37.01 197.03-37.01 197.03-27.25 192.03-27.25 192.03-33.01 182.26-33.01 182.26-4.2 186.07-4.2 186.07 0 174.08 0ZM201.52 0L201.52-4.2 205.04-4.2 205.04-32.35 201.52-32.35 201.52-37.01 213.24-37.01 224.99-5.05 236.87-37.01 247.98-37.01 247.98-32.35 244.49-32.35 244.49-4.2 247.98-4.2 247.98 0 235.97 0 235.97-4.2 239.93-4.2 239.93-32.62 226.99 0 222.84 0 209.73-32.69 209.73-4.2 213.53-4.2 213.53 0 201.52 0ZM254.96-32.79L254.96-37.01 266.97-37.01 266.97-32.79 263.26-32.79 263.26-4.2 276.03-4.2Q276.42-4.2 276.81-4.38 277.2-4.57 277.52-4.86 277.84-5.15 278.03-5.53 278.23-5.91 278.23-6.3L278.23-6.3 278.23-10.96 282.87-10.96 282.87 0 254.96 0 254.96-4.2 258.48-4.2 258.48-32.79 254.96-32.79ZM283.11 0Q283.11 0 283.11 0ZM329.05-27.25L323.81-27.25Q322.17-30.03 319.47-31.62 316.77-33.2 313.45-33.2L313.45-33.2Q310.62-33.2 308.28-32.01 305.93-30.81 304.26-28.8 302.59-26.78 301.66-24.13 300.73-21.48 300.73-18.55L300.73-18.55Q300.73-15.09 301.76-12.41 302.79-9.74 304.43-7.97 306.08-6.2 308.35-5.02 310.62-3.83 313.45-3.83L313.45-3.83Q317.31-3.83 320.17-5.7 323.02-7.57 325.05-11.84L325.05-11.84 329.35-9.81Q328.42-7.18 326.2-4.72 323.98-2.27 320.72-0.77 317.46 0.73 313.5 0.73L313.5 0.73Q309.72 0.73 306.54-0.7 303.37-2.12 300.89-4.76 298.42-7.4 297.11-11.01 295.8-14.62 295.8-18.55L295.8-18.55Q295.8-22.51 297.11-26.03 298.42-29.54 300.77-32.14 303.13-34.74 306.39-36.24 309.65-37.74 313.45-37.74L313.45-37.74Q316.85-37.74 319.31-36.78 321.78-35.82 323.5-34.48 325.22-33.15 326.47-31.59L326.47-31.59 329.05-31.59 329.05-27.25ZM353.34-26.95Q353.34-29.1 352.56-30.18 351.78-31.25 350.84-31.82 349.9-32.4 348.78-32.7 347.66-33.01 346.53-33.01L346.53-33.01Q344.68-33.01 343.29-32.58 341.89-32.15 340.98-31.42 340.06-30.69 339.6-29.71 339.14-28.74 339.14-27.66L339.14-27.66Q339.14-26.05 339.71-25.06 340.28-24.07 341.16-23.47 342.04-22.88 343.1-22.53 344.16-22.19 345.14-21.85L345.14-21.85 350.07-20.24Q352.29-19.53 353.99-18.63 355.69-17.72 356.84-16.49 357.98-15.26 358.58-13.65 359.18-12.04 359.18-9.91L359.18-9.91Q359.18-7.62 358.24-5.66 357.3-3.71 355.61-2.27 353.93-0.83 351.6-0.01 349.27 0.81 346.48 0.81L346.48 0.81Q343.63 0.81 341.6 0.16 339.57-0.49 338.2-1.57 336.82-2.66 335.99-4.05 335.16-5.44 334.69-6.91L334.69-6.91 332.84-6.91 332.84-11.11 338.99-11.11Q338.99-8.4 339.56-7.28 340.14-6.15 341.16-5.41 342.19-4.66 343.6-4.28 345.02-3.91 346.73-3.91L346.73-3.91Q348.39-3.91 349.72-4.3 351.05-4.69 351.99-5.43 352.93-6.18 353.43-7.24 353.93-8.3 353.93-9.64L353.93-9.64Q353.93-11.13 353.31-12.17 352.68-13.21 351.71-13.94 350.73-14.67 349.57-15.14 348.41-15.6 347.34-15.94L347.34-15.94 341.99-17.46Q340.23-17.99 338.78-18.82 337.33-19.65 336.29-20.85 335.25-22.05 334.69-23.65 334.13-25.24 334.13-27.34L334.13-27.34Q334.13-29.47 334.96-31.32 335.79-33.18 337.4-34.57 339.01-35.96 341.34-36.76 343.68-37.55 346.68-37.55L346.68-37.55Q348.66-37.55 350.33-37.08 352-36.62 353.36-35.78 354.71-34.94 355.75-33.75 356.79-32.57 357.49-31.15L357.49-31.15 359.33-31.15 359.33-26.95 353.34-26.95ZM382.88-26.95Q382.88-29.1 382.1-30.18 381.32-31.25 380.38-31.82 379.44-32.4 378.32-32.7 377.19-33.01 376.07-33.01L376.07-33.01Q374.22-33.01 372.82-32.58 371.43-32.15 370.52-31.42 369.6-30.69 369.14-29.71 368.67-28.74 368.67-27.66L368.67-27.66Q368.67-26.05 369.25-25.06 369.82-24.07 370.7-23.47 371.58-22.88 372.64-22.53 373.7-22.19 374.68-21.85L374.68-21.85 379.61-20.24Q381.83-19.53 383.53-18.63 385.23-17.72 386.37-16.49 387.52-15.26 388.12-13.65 388.72-12.04 388.72-9.91L388.72-9.91Q388.72-7.62 387.78-5.66 386.84-3.71 385.15-2.27 383.47-0.83 381.14-0.01 378.81 0.81 376.02 0.81L376.02 0.81Q373.17 0.81 371.14 0.16 369.11-0.49 367.73-1.57 366.35-2.66 365.52-4.05 364.69-5.44 364.23-6.91L364.23-6.91 362.37-6.91 362.37-11.11 368.53-11.11Q368.53-8.4 369.1-7.28 369.67-6.15 370.7-5.41 371.73-4.66 373.14-4.28 374.56-3.91 376.27-3.91L376.27-3.91Q377.93-3.91 379.26-4.3 380.59-4.69 381.53-5.43 382.47-6.18 382.97-7.24 383.47-8.3 383.47-9.64L383.47-9.64Q383.47-11.13 382.85-12.17 382.22-13.21 381.25-13.94 380.27-14.67 379.11-15.14 377.95-15.6 376.88-15.94L376.88-15.94 371.53-17.46Q369.77-17.99 368.32-18.82 366.87-19.65 365.83-20.85 364.79-22.05 364.23-23.65 363.67-25.24 363.67-27.34L363.67-27.34Q363.67-29.47 364.5-31.32 365.33-33.18 366.94-34.57 368.55-35.96 370.88-36.76 373.21-37.55 376.22-37.55L376.22-37.55Q378.2-37.55 379.87-37.08 381.54-36.62 382.89-35.78 384.25-34.94 385.29-33.75 386.33-32.57 387.03-31.15L387.03-31.15 388.86-31.15 388.86-26.95 382.88-26.95ZM389.96 0Q389.96 0 389.96 0ZM404.56-32.79L404.56-37.01 416.54-37.01 416.54-32.79 413.44-32.79 413.44-4.2Q413.44-3.66 413.19-2.94 412.93-2.22 412.53-1.42 412.13-0.61 411.59 0.23 411.05 1.07 410.51 1.88L410.51 1.88Q409.22 3.76 407.58 5.81L407.58 5.81 403.39 5.44Q404.83 3.25 405.97 1.25L405.97 1.25Q406.46 0.39 406.93-0.5 407.39-1.39 407.76-2.22 408.12-3.05 408.35-3.77 408.59-4.49 408.59-5L408.59-5 408.59-32.79 404.56-32.79ZM434.58 4.96L434.58 0.59Q431.17 0.12 428.35-1.54 425.53-3.2 423.51-5.75 421.5-8.3 420.4-11.57 419.3-14.84 419.3-18.51L419.3-18.51Q419.3-22.51 420.61-26.03 421.91-29.54 424.27-32.14 426.63-34.74 429.88-36.24 433.14-37.74 437.05-37.74L437.05-37.74Q440.98-37.74 444.25-36.24 447.52-34.74 449.87-32.14 452.21-29.54 453.51-26.03 454.8-22.51 454.8-18.51L454.8-18.51Q454.8-14.79 453.66-11.51 452.53-8.23 450.48-5.68 448.43-3.13 445.57-1.46 442.71 0.2 439.27 0.61L439.27 0.61Q440.86 1.03 441.81 1.59 442.76 2.15 444.2 2.87 445.64 3.59 447.08 3.59L447.08 3.59Q448.48 3.59 449.56 2.89 450.65 2.2 450.99 0.76L450.99 0.76 454.7 2.44Q454.41 3.81 453.61 4.85 452.82 5.88 451.76 6.58 450.7 7.28 449.48 7.62 448.26 7.96 447.08 7.96L447.08 7.96Q445.2 7.96 443.56 7.28 441.91 6.59 440.1 5.62 438.3 4.64 436.63 4.64L436.63 4.64Q435.63 4.64 434.58 4.96L434.58 4.96ZM437.05-3.81L437.05-3.81Q439.96-3.81 442.31-5 444.67-6.2 446.33-8.22 447.99-10.23 448.89-12.89 449.79-15.55 449.79-18.51L449.79-18.51Q449.79-21.53 448.81-24.33 447.82-27.12 446.03-29.1 444.25-31.08 441.98-32.14 439.71-33.2 437.05-33.2L437.05-33.2Q434.14-33.2 431.78-32.01 429.41-30.81 427.75-28.8 426.09-26.78 425.18-24.11 424.28-21.44 424.28-18.51L424.28-18.51Q424.28-15.16 425.27-12.48 426.26-9.79 427.89-8 429.53-6.2 431.96-5 434.39-3.81 437.05-3.81ZM459.29-32.79L459.29-37.01 471.28-37.01 471.28-32.79 467.49-32.79 467.49-15.55Q467.49-12.45 468.19-10.27 468.88-8.08 470.12-6.7 471.35-5.32 473.05-4.69 474.74-4.05 476.77-4.05L476.77-4.05Q478.87-4.05 480.63-4.61 482.38-5.18 483.64-6.51 484.9-7.84 485.59-10.05 486.29-12.26 486.29-15.55L486.29-15.55 486.29-32.79 482.29-32.79 482.29-37.01 494.27-37.01 494.27-32.79 490.98-32.79 490.98-16.09Q490.98-12.08 489.87-8.98 488.76-5.88 486.83-3.78 484.9-1.68 482.29-0.6 479.67 0.49 476.67 0.49L476.67 0.49Q473.74 0.49 471.19-0.59 468.64-1.66 466.75-3.74 464.86-5.81 463.77-8.8 462.68-11.79 462.68-15.65L462.68-15.65 462.68-32.79 459.29-32.79ZM497.86-32.79L497.86-37.01 524.37-37.01 524.37-26.54 519.37-26.54 519.37-32.79 506.16-32.79 506.16-20.95 517.27-20.95 517.27-16.75 506.16-16.75 506.16-4.2 519.37-4.2 519.37-10.45 524.37-10.45 524.37 0 497.86 0 497.86-4.2 501.38-4.2 501.38-32.79 497.86-32.79ZM529.25-32.79L529.25-37.01 544.66-37.01Q547.13-37.01 549.21-36.36 551.3-35.72 552.83-34.46 554.35-33.2 555.21-31.32 556.06-29.44 556.06-27L556.06-27Q556.06-25.61 555.56-24.26 555.06-22.9 554.17-21.74 553.28-20.58 552.06-19.68 550.84-18.77 549.4-18.29L549.4-18.29Q550.01-18.02 550.63-17.52 551.25-17.02 551.8-16.3 552.35-15.58 552.8-14.66 553.25-13.75 553.52-12.7L553.52-12.7 555.57-4.64 558.77-4.64 558.82 0 551.62 0 548.86-11.25Q548.1-14.28 546.55-15.71 545-17.14 542.32-17.14L542.32-17.14 537.56-17.14 537.56-4.2 541.27-4.2 541.27 0 529.25 0 529.25-4.2 532.77-4.2 532.77-32.79 529.25-32.79ZM544.07-32.79L537.56-32.79 537.56-21.14 544.66-21.14Q546.05-21.14 547.21-21.51 548.37-21.88 549.21-22.61 550.06-23.34 550.53-24.43 551.01-25.51 551.01-26.95L551.01-26.95Q551.01-29.71 549.35-31.25 547.69-32.79 544.07-32.79L544.07-32.79ZM562.6-32.79L562.6-37.01 574.61-37.01 574.61-32.79 571.1-32.79 578.06-20.9 585.5-32.79 581.64-32.79 581.64-37.01 593.66-37.01 593.66-32.79 590.51-32.79 580.11-17.02 580.11-4.2 583.91-4.2 583.91 0 571.9 0 571.9-4.2 575.3-4.2 575.3-17.14 565.48-32.79 562.6-32.79Z" opacity="1" transform="matrix(1,0,0,1,0,0)" fill="#ffffff" class="slogan-text-1" data-fill-palette-color="quaternary" id="text-1"></path></svg></g></svg></g></svg></g></svg></g></svg></g><defs></defs></svg><rect width="395.5199999999999" height="107.9597974565684" fill="none" stroke="none" visibility="hidden"></rect></g></svg></g></svg>